<?xml version="1.0" encoding="UTF-8" standalone="no"?>
<!-- Created with Inkscape (http://www.inkscape.org/) -->

<svg
   xmlns:dc="http://purl.org/dc/elements/1.1/"
   xmlns:cc="http://creativecommons.org/ns#"
   xmlns:rdf="http://www.w3.org/1999/02/22-rdf-syntax-ns#"
   xmlns:svg="http://www.w3.org/2000/svg"
   xmlns="http://www.w3.org/2000/svg"
   xmlns:sodipodi="http://sodipodi.sourceforge.net/DTD/sodipodi-0.dtd"
   xmlns:inkscape="http://www.inkscape.org/namespaces/inkscape"
   width="112.80266mm"
   height="96.910721mm"
   viewBox="0 0 112.80266 96.910721"
   version="1.1"
   id="svg5074"
   inkscape:version="0.92.2 5c3e80d, 2017-08-06"
   sodipodi:docname="bg-pattern.svg">
  <defs
     id="defs5068" />
  <sodipodi:namedview
     id="base"
     pagecolor="#ffffff"
     bordercolor="#666666"
     borderopacity="1.0"
     inkscape:pageopacity="0.0"
     inkscape:pageshadow="2"
     inkscape:zoom="1.4842122"
     inkscape:cx="202.08902"
     inkscape:cy="173.5847"
     inkscape:document-units="mm"
     inkscape:current-layer="layer1"
     showgrid="false"
     showborder="false"
     inkscape:object-nodes="false"
     inkscape:window-width="1440"
     inkscape:window-height="779"
     inkscape:window-x="0"
     inkscape:window-y="1"
     inkscape:window-maximized="1" />
  <metadata
     id="metadata5071">
    <rdf:RDF>
      <cc:Work
         rdf:about="">
        <dc:format>image/svg+xml</dc:format>
        <dc:type
           rdf:resource="http://purl.org/dc/dcmitype/StillImage" />
        <dc:title></dc:title>
      </cc:Work>
    </rdf:RDF>
  </metadata>
  <g
     inkscape:label="Layer 1"
     inkscape:groupmode="layer"
     id="layer1"
     transform="translate(50.079497,-76.902311)">
    <path
       style="fill:#34a7cc;fill-opacity:0.65499998;stroke:#ff8080;stroke-width:0.90099442;stroke-miterlimit:4;stroke-dasharray:none;stroke-opacity:1"
       d="m -49.619141,97.697266 c 8.865886,0.04102 17.731771,0.08203 26.597657,0.123046 -0.727214,-6.753255 -1.454427,-13.50651 -2.181641,-20.259765 -8.141276,-0.06055 -16.282552,-0.121094 -24.423828,-0.181641 0.0026,6.772787 0.0052,13.545573 0.0078,20.31836 z"
       id="rect5719"
       inkscape:connector-curvature="0" />
    <path
       style="fill:#68ce5f;fill-opacity:0.65499998;stroke:#ff8080;stroke-width:0.90099442;stroke-miterlimit:4;stroke-dasharray:none;stroke-opacity:1"
       d="m -20.302734,77.826172 c 0.871744,6.659505 1.743489,13.31901 2.615234,19.978516 7.114583,0.33789 14.2291667,0.675781 21.34375,1.013671 0.032552,-7.078125 0.065104,-14.15625 0.097656,-21.234375 -8.0188802,0.08073 -16.03776,0.161459 -24.05664,0.242188 z"
       id="rect5721"
       inkscape:connector-curvature="0" />
    <path
       style="fill:#51c474;fill-opacity:0.65499998;stroke:#ff8080;stroke-width:0.90099442;stroke-miterlimit:4;stroke-dasharray:none;stroke-opacity:1"
       d="M 7.7402344,98.785156 C 16.377604,97.766927 25.014974,96.748698 33.652344,95.730469 33.494792,89.979167 33.33724,84.227865 33.179688,78.476562 24.999349,78.14974 16.81901,77.822917 8.6386719,77.496094 8.3391927,84.592448 8.0397135,91.688802 7.7402344,98.785156 Z"
       id="rect5723"
       inkscape:connector-curvature="0" />
    <path
       style="fill:#38c28a;fill-opacity:0.65499998;stroke:#ff8080;stroke-width:0.90099442;stroke-miterlimit:4;stroke-dasharray:none;stroke-opacity:1"
       d="m 37.990234,78.646484 c -0.07487,5.522787 -0.149739,11.045573 -0.224609,16.56836 8.167969,0.770182 16.335937,1.540364 24.503906,2.310547 -0.04232,-6.716146 -0.08463,-13.432292 -0.126953,-20.148438 -8.050781,0.423177 -16.101562,0.846354 -24.152344,1.269531 z"
       id="rect5725"
       inkscape:connector-curvature="0" />
    <path
       style="fill:#4cddbd;fill-opacity:0.65499998;stroke:#ff8080;stroke-width:0.90099442;stroke-miterlimit:4;stroke-dasharray:none;stroke-opacity:1"
       d="m -49.628906,102.57031 c 6.51e-4,6.77735 0.0013,13.55469 0.002,20.33203 8.572266,0.51758 17.144531,1.03516 25.716797,1.55274 0.157552,-7.64974 0.315104,-15.29948 0.472656,-22.94922 -8.730469,0.35482 -17.460937,0.70963 -26.191406,1.06445 z"
       id="rect5727"
       inkscape:connector-curvature="0" />
    <path
       style="fill:#47d087;fill-opacity:0.65499998;stroke:#ff8080;stroke-width:0.90099442;stroke-miterlimit:4;stroke-dasharray:none;stroke-opacity:1"
       d="m -19.927734,125.45898 c 8.078125,-1.08268 16.1562496,-2.16536 24.2343746,-3.24804 0.2975261,-6.33464 0.5950521,-12.66927 0.8925782,-19.00391 -7.7988282,-0.6875 -15.5976568,-1.375 -23.3964848,-2.0625 -0.576823,8.10482 -1.153645,16.20964 -1.730468,24.31445 z"
       id="rect5729"
       inkscape:connector-curvature="0" />
    <path
       style="fill:#47c48b;fill-opacity:0.65499998;stroke:#ff8080;stroke-width:0.90099442;stroke-miterlimit:4;stroke-dasharray:none;stroke-opacity:1"
       d="m 7.9863281,104.43945 c 0.5039063,5.72071 1.0078125,11.44141 1.5117188,17.16211 7.9498701,-0.31836 15.8997391,-0.63672 23.8496091,-0.95508 -0.164713,-6.00846 -0.329427,-12.01692 -0.49414,-18.02539 -8.289063,0.60612 -16.578125,1.21224 -24.8671879,1.81836 z"
       id="rect5731"
       inkscape:connector-curvature="0" />
    <path
       style="fill:#448ecb;fill-opacity:0.65499998;stroke:#ff8080;stroke-width:0.90099442;stroke-miterlimit:4;stroke-dasharray:none;stroke-opacity:1"
       d="m 37.535156,120.88672 c 8.161459,0.64258 16.322917,1.28516 24.484375,1.92773 0.03711,-6.7832 0.07422,-13.5664 0.111328,-20.34961 -8.328776,-0.37174 -16.657552,-0.74349 -24.986328,-1.11523 0.130209,6.51237 0.260417,13.02474 0.390625,19.53711 z"
       id="rect5733"
       inkscape:connector-curvature="0" />
    <path
       style="fill:#5753cf;fill-opacity:0.65499998;stroke:#ff8080;stroke-width:0.90099442;stroke-miterlimit:4;stroke-dasharray:none;stroke-opacity:1"
       d="m -49.628906,148.09766 c 8.459635,-0.44922 16.919271,-0.89844 25.378906,-1.34766 0.536458,-6.02474 1.072917,-12.04948 1.609375,-18.07422 -8.995443,-0.30143 -17.990885,-0.60286 -26.986328,-0.9043 -6.51e-4,6.7754 -0.0013,13.55079 -0.002,20.32618 z"
       id="rect5735"
       inkscape:connector-curvature="0" />
    <path
       style="fill:#51cda8;fill-opacity:0.65499998;stroke:#ff8080;stroke-width:0.90099442;stroke-miterlimit:4;stroke-dasharray:none;stroke-opacity:1"
       d="m -19.21875,128.92969 c -0.291016,5.84114 -0.582031,11.68229 -0.873047,17.52343 7.98763,0.54362 15.9752605,1.08724 23.9628908,1.63086 0.1497395,-6.77278 0.2994791,-13.54557 0.4492187,-20.31836 -7.8463542,0.38803 -15.6927085,0.77605 -23.5390625,1.16407 z"
       id="rect5737"
       inkscape:connector-curvature="0" />
    <path
       style="fill:#3ea699;fill-opacity:0.65499998;stroke:#ff8080;stroke-width:0.90099442;stroke-miterlimit:4;stroke-dasharray:none;stroke-opacity:1"
       d="m 9.109375,127.2207 c -0.1119792,6.99154 -0.2239583,13.98308 -0.3359375,20.97461 7.8059895,0.53841 15.6119795,1.07683 23.4179685,1.61524 0.34961,-7.99935 0.699219,-15.9987 1.048828,-23.99805 -8.043619,0.4694 -16.087239,0.9388 -24.130859,1.4082 z"
       id="rect5739"
       inkscape:connector-curvature="0" />
    <path
       style="fill:#4bc1a2;fill-opacity:0.65499998;stroke:#ff8080;stroke-width:0.90099442;stroke-miterlimit:4;stroke-dasharray:none;stroke-opacity:1"
       d="m 37.207031,149.33594 c 8.311198,-0.41211 16.622396,-0.82422 24.933594,-1.23633 -0.0046,-6.77279 -0.0091,-13.54557 -0.01367,-20.31836 C 54,127.17578 45.873047,126.57031 37.746094,125.96484 c -0.179688,7.79037 -0.359375,15.58073 -0.539063,23.3711 z"
       id="rect5741"
       inkscape:connector-curvature="0" />
    <path
       style="fill:#55e3e9;fill-opacity:0.65499998;stroke:#ff8080;stroke-width:0.90099442;stroke-miterlimit:4;stroke-dasharray:none;stroke-opacity:1"
       d="m -49.626953,152.96875 c 0,6.77539 0,13.55078 0,20.32617 8.060547,0.0221 16.121094,0.0443 24.181641,0.0664 0.10677,-6.93034 0.213541,-13.86068 0.320312,-20.79102 -8.167318,0.13281 -16.334635,0.26563 -24.501953,0.39844 z"
       id="rect5743"
       inkscape:connector-curvature="0" />
    <path
       style="fill:#56c489;fill-opacity:0.65499998;stroke:#ff8080;stroke-width:0.90099442;stroke-miterlimit:4;stroke-dasharray:none;stroke-opacity:1"
       d="m -20.503906,173.1875 c 8.108724,0.0358 16.2174477,0.0716 24.3261716,0.10742 0.00391,-6.78776 0.00781,-13.57552 0.011719,-20.36328 -8.3261719,-0.28841 -16.6523436,-0.57682 -24.9785156,-0.86523 0.213541,7.04036 0.427083,14.08073 0.640625,21.12109 z"
       id="rect5771"
       inkscape:connector-curvature="0" />
    <path
       style="fill:#6cd5b0;fill-opacity:0.65499998;stroke:#ff8080;stroke-width:0.90099442;stroke-miterlimit:4;stroke-dasharray:none;stroke-opacity:1"
       d="m 8.7363281,173.26953 c 7.8639319,-0.53581 15.7278649,-1.07161 23.5917969,-1.60742 -0.521484,-5.26888 -1.042969,-10.53776 -1.564453,-15.80664 -7.214193,-0.87565 -14.428386,-1.7513 -21.6425782,-2.62695 -0.1282553,6.68033 -0.2565105,13.36067 -0.3847657,20.04101 z"
       id="rect5773"
       inkscape:connector-curvature="0" />
    <path
       style="fill:#3dc86b;fill-opacity:0.65499998;stroke:#ff8080;stroke-width:0.90099442;stroke-miterlimit:4;stroke-dasharray:none;stroke-opacity:1"
       d="m 35.716797,154.52148 c 0.524739,5.98503 1.049479,11.97006 1.574219,17.95508 8.283203,0.27279 16.566406,0.54558 24.849609,0.81836 -6.51e-4,-6.77604 -0.0013,-13.55208 -0.002,-20.32812 -8.807292,0.51823 -17.614583,1.03646 -26.421875,1.55468 z"
       id="rect5775"
       inkscape:connector-curvature="0" />
    <text
       id="text832"
       y="131.09909"
       x="-24.007774"
       style="font-style:normal;font-variant:normal;font-weight:normal;font-stretch:normal;font-size:26.05477333px;line-height:1.25;font-family:'Cinzel Decorative Black';-inkscape-font-specification:'Cinzel Decorative Black, ';letter-spacing:0px;word-spacing:0px;fill:#593caf;fill-opacity:1;stroke:none;stroke-width:3.59833333;stroke-miterlimit:4;stroke-dasharray:none;paint-order:markers fill stroke;"
       xml:space="preserve"><tspan
         style="font-style:normal;font-variant:normal;font-weight:normal;font-stretch:normal;font-family:'Cinzel Decorative Black';-inkscape-font-specification:'Cinzel Decorative Black, ';fill:#ffd42a;stroke:#ffffff;stroke-width:3.59833333;stroke-miterlimit:4;stroke-dasharray:none;paint-order:markers fill stroke;"
         y="131.09909"
         x="-24.007774"
         id="tspan830"
         sodipodi:role="line">DRC</tspan></text>
    <text
       xml:space="preserve"
       style="font-style:normal;font-variant:normal;font-weight:normal;font-stretch:normal;font-size:26.05477333px;line-height:1.25;font-family:'Cinzel Decorative Black';-inkscape-font-specification:'Cinzel Decorative Black, ';letter-spacing:0px;word-spacing:0px;fill:#a03883;fill-opacity:1;stroke:none;stroke-width:0.65136933"
       x="-24.007774"
       y="131.09909"
       id="text5835"><tspan
         sodipodi:role="line"
         id="tspan5833"
         x="-24.007774"
         y="131.09909"
         style="font-style:normal;font-variant:normal;font-weight:normal;font-stretch:normal;font-family:'Cinzel Decorative Black';-inkscape-font-specification:'Cinzel Decorative Black, ';fill:#ffccaa;stroke:#165044;stroke-width:0.65136933">DRC</tspan></text>
  </g>
</svg>
