<svg width="580" height="400" xmlns="http://www.w3.org/2000/svg">
 <!-- Created with Method Draw - http://github.com/duopixel/Method-Draw/ -->

 <g>
  <title>background</title>
  <rect fill="none" id="canvas_background" height="402" width="582" y="-1" x="-1"/>
  <g display="none" overflow="visible" y="0" x="0" height="100%" width="100%" id="canvasGrid">
   <rect fill="url(#gridpattern)" stroke-width="0" y="0" x="0" height="100%" width="100%"/>
  </g>
 </g>
 <g>
  <title>Layer 1</title>
  <metadata transform="matrix(0.019290125296439697,0,0,0.019290125296439697,0,0) ">Created by potrace 1.15, written by Peter Selinger 2001-2017</metadata>
  <g stroke="null" id="svg_14">
   <g id="svg_4" fill="#000000" transform="matrix(0.0542454610038622,0,0,-0.046983912228468976,-7870.044851435667,-4336.5072884285655) ">
    <path fill="#ffffff" stroke="null" id="svg_5" d="m150269.90625,-93059.054688c0,-54 3,-161 7,-239l6,-141l181,-6c100,-4 199,-10 222,-13l41,-6l28,236c16,130 26,238 23,241c-10,11 -214,24 -360,25l-148,0l0,-97z"/>
    <path fill="#ffffff" stroke="null" id="svg_6" d="m148584.90625,-93380.054688c-383,-200 -667,-411 -960,-713c-598,-617 -936,-1390 -974,-2226c-4,-92 -5,-206 -3,-252l4,-84l82,7c44,3 151,6 237,6l156,0l6,223c8,320 47,558 136,832c248,761 791,1389 1538,1777l132,69l-21,47c-11,26 -48,112 -83,192c-80,186 -87,200 -94,200c-3,0 -73,-36 -156,-78z"/>
    <path fill="#ffffff" stroke="null" id="svg_7" d="m152266.90625,-93489.054688c-3,-5 -57,-94 -121,-200c-64,-106 -116,-196 -116,-201c0,-5 38,-32 84,-60c385,-235 784,-641 1013,-1031c221,-375 349,-754 398,-1176c17,-145 20,-464 5,-595c-5,-47 -12,-112 -16,-145l-6,-60l232,-43c128,-23 235,-41 237,-38c10,10 33,211 43,378c19,309 -15,679 -91,985c-207,842 -729,1578 -1474,2079c-118,79 -183,116 -188,107z"/>
    <path fill="#ffffff" stroke="null" id="svg_8" d="m150034.90625,-94618.054688c-391,-53 -774,-218 -1065,-460c-100,-82 -252,-241 -324,-336l-58,-78l-547,0c-412,0 -550,-3 -559,-12c-16,-16 -16,-152 1,-166c6,-6 41,-15 77,-21c93,-16 146,-38 167,-69c17,-25 18,-69 21,-752c2,-490 0,-737 -8,-761c-14,-51 -49,-70 -149,-83c-99,-13 -111,-25 -111,-109c0,-95 -58,-87 598,-87l577,-1l34,-45c152,-202 412,-406 686,-540c514,-250 1094,-290 1644,-113c120,39 438,186 489,227l24,18l-132,195c-73,107 -134,196 -136,198c-3,3 -21,-5 -42,-18c-77,-47 -261,-131 -350,-160c-261,-86 -584,-107 -860,-56c-273,51 -588,203 -771,372l-64,59l49,28c308,179 472,512 450,921c-20,383 -183,662 -484,828l-76,41l90,84c214,200 496,342 807,404c146,30 478,33 623,6c104,-20 292,-77 376,-115c32,-14 61,-24 64,-21c7,8 184,410 187,426c2,16 -88,56 -239,106c-243,80 -415,106 -694,105c-107,-1 -240,-7 -295,-15zm-1140,-988c108,-29 255,-94 332,-147c178,-122 295,-301 349,-534c28,-117 25,-399 -4,-505c-34,-126 -62,-188 -123,-280c-138,-205 -372,-340 -674,-386c-134,-20 -1215,-20 -1215,0c0,15 18,20 103,32c28,4 63,18 88,36c78,56 74,10 74,858c0,718 -1,757 -19,790c-10,19 -28,45 -39,57c-24,27 -103,58 -170,68c-37,6 -47,11 -47,27c0,19 12,19 623,15l622,-3l100,-28z"/>
    <path fill="#ffffff" stroke="null" id="svg_9" d="m148437.90625,-95631.054688c-36,-3 -70,-10 -75,-14c-13,-13 -16,-1479 -3,-1562c13,-85 47,-146 102,-183c37,-24 51,-27 122,-27c105,1 166,27 236,101c80,84 132,218 162,414c20,132 17,610 -5,726c-21,114 -61,241 -98,315c-37,74 -120,164 -178,194c-44,22 -147,47 -180,43c-9,0 -46,-4 -83,-7zm459,-543c24,-125 24,-632 1,-748l-15,-75l-21,45c-107,233 -121,581 -34,855l25,80l13,-32c8,-18 22,-74 31,-125z"/>
    <path fill="#ffffff" stroke="null" id="svg_10" d="m152174.90625,-95443.054688c-285,-41 -551,-208 -702,-440c-85,-133 -154,-312 -169,-445c-8,-65 -19,-69 -27,-11c-15,106 -95,216 -190,258c-43,20 -69,24 -153,24c-95,0 -103,-2 -175,-37c-40,-20 -98,-58 -126,-83l-53,-47l0,52c0,43 -5,56 -28,80c-24,24 -35,28 -68,24c-21,-2 -194,-11 -384,-20c-200,-9 -350,-21 -358,-27c-19,-15 -12,-157 8,-168c8,-5 41,-18 72,-30c48,-17 62,-28 83,-63l25,-43l0,-436c0,-305 -3,-444 -11,-461c-13,-27 -54,-46 -101,-46c-58,0 -68,-14 -68,-90c0,-37 3,-75 6,-84c5,-14 59,-16 505,-16l498,0l12,21c13,25 8,134 -8,150c-5,5 -41,17 -79,24c-37,8 -75,22 -84,30c-13,14 -15,71 -18,422l-3,406l28,29c15,15 29,28 32,28c3,0 7,-31 8,-69c4,-160 94,-257 258,-280c69,-10 136,-1 193,26c73,35 152,135 178,228c6,22 10,-3 15,-100c27,-476 302,-828 739,-946c75,-21 108,-23 275,-23c181,0 194,1 275,28c232,76 401,222 538,464c23,41 42,84 42,95c0,31 -144,133 -172,122c-7,-3 -34,-39 -61,-79c-110,-170 -224,-275 -337,-313c-36,-12 -85,-18 -140,-18c-76,0 -93,4 -151,32c-95,47 -151,126 -197,275c-31,100 -70,402 -53,412c4,3 78,-2 166,-9c87,-8 161,-12 164,-9c15,15 1,315 -18,428c-12,66 -22,121 -24,122c-1,2 -62,-12 -135,-30c-73,-19 -132,-31 -133,-27c-7,38 34,201 70,276c66,141 168,199 306,174c133,-24 222,-106 310,-284c30,-60 71,-159 91,-220c20,-60 41,-116 46,-122c14,-18 162,-18 176,0c12,14 0,766 -12,786c-4,7 -37,11 -83,11c-66,0 -81,-3 -109,-25c-39,-30 -53,-31 -102,-6c-147,74 -395,108 -587,80zm326,-84c92,-16 200,-50 266,-84c55,-28 64,-27 120,12c49,33 75,39 92,22c5,-6 11,-148 13,-328l3,-318l-24,3c-20,3 -28,17 -60,108c-120,341 -255,496 -459,529c-189,30 -338,-73 -413,-285c-74,-213 -99,-656 -54,-959c53,-351 175,-522 399,-557c210,-32 404,70 567,302l63,89l28,-17c15,-9 28,-21 28,-27c0,-27 -131,-207 -200,-275c-113,-111 -231,-174 -383,-207c-105,-22 -345,-13 -451,16c-350,97 -587,366 -652,741c-23,132 -15,402 14,512c101,375 360,636 708,712c38,8 83,17 99,19c74,10 219,6 296,-8zm-1440,-632c92,-47 135,-122 146,-253c7,-92 -22,-168 -92,-236c-62,-61 -114,-77 -209,-64c-73,11 -131,49 -160,105c-20,39 -23,80 -13,229c3,58 -18,66 -86,32c-30,-16 -76,-47 -101,-70l-46,-43l0,-415c0,-283 4,-426 11,-449c17,-51 55,-85 107,-99c26,-7 55,-14 65,-17c27,-7 20,-31 -10,-35c-16,-2 -211,-2 -435,0c-340,2 -408,5 -408,16c0,9 15,17 38,21c58,9 101,40 122,88c18,39 20,69 19,487c0,346 -3,453 -13,483c-23,64 -65,108 -128,136c-67,30 -78,56 -25,64c17,2 77,5 131,6c55,1 102,4 106,6c3,2 99,7 213,11l207,7l0,-106c0,-88 3,-108 16,-115c28,-16 51,-2 99,59c93,118 200,178 321,179c58,0 80,-5 125,-27z"/>
    <path fill="#ffffff" stroke="null" id="svg_11" d="m146969.90625,-97211.054688l-225,-57l3,-29c7,-61 123,-419 146,-450c9,-12 43,-1 225,75c118,50 216,92 218,94c2,2 -16,60 -40,127c-25,68 -55,163 -67,212c-13,48 -26,87 -29,86c-3,-1 -107,-27 -231,-58z"/>
    <path fill="#ffffff" stroke="null" id="svg_12" d="m152947.90625,-98242.054688c-42,-57 -143,-177 -206,-243l-55,-59l172,-171l172,-172l55,60c116,126 275,320 274,335c-1,4 -298,228 -368,277c-14,10 -21,6 -44,-27z"/>
    <path fill="#ffffff" stroke="null" id="svg_13" d="m148089.90625,-98729.054688c-18,-21 -87,-98 -154,-171c-67,-74 -122,-137 -124,-142c-8,-21 338,-281 533,-402c858,-529 1933,-689 2940,-437c165,42 425,128 425,141c0,30 -164,448 -174,444c-63,-27 -340,-110 -446,-134c-893,-203 -1835,-36 -2585,458c-107,71 -188,131 -304,227c-36,29 -68,53 -72,53c-4,0 -22,-17 -39,-37z"/>
   </g>
  </g>
 </g>
</svg>